<svg width="114" height="17" viewBox="0 0 114 17" fill="none" xmlns="http://www.w3.org/2000/svg">
<g style="mix-blend-mode:exclusion">
<path d="M1.368 16.0698C1.336 16.0698 1.32 16.0218 1.32 15.9258C1.32 15.8298 1.336 15.7818 1.368 15.7818C1.832 15.7818 2.168 15.7418 2.376 15.6618C2.6 15.5818 2.752 15.4298 2.832 15.2058C2.912 14.9658 2.952 14.6058 2.952 14.1258V9.58982C2.952 8.99782 2.888 8.57382 2.76 8.31782C2.648 8.06182 2.448 7.93382 2.16 7.93382C1.856 7.93382 1.472 8.05382 1.008 8.29382H0.984C0.92 8.29382 0.872 8.25382 0.84 8.17382C0.808 8.09382 0.824 8.03782 0.888 8.00582L3.864 6.61382L3.96 6.58982C3.992 6.58982 4.024 6.60582 4.056 6.63782C4.104 6.66982 4.128 6.70982 4.128 6.75782C4.128 6.85382 4.12 7.17382 4.104 7.71782C4.088 8.24582 4.08 8.86182 4.08 9.56582V14.1258C4.08 14.6058 4.112 14.9658 4.176 15.2058C4.256 15.4298 4.4 15.5818 4.608 15.6618C4.832 15.7418 5.176 15.7818 5.64 15.7818C5.688 15.7818 5.712 15.8298 5.712 15.9258C5.712 16.0218 5.688 16.0698 5.64 16.0698C5.272 16.0698 4.984 16.0618 4.776 16.0458L3.504 16.0218L2.256 16.0458C2.032 16.0618 1.736 16.0698 1.368 16.0698ZM3.312 3.68582C3.008 3.68582 2.768 3.60582 2.592 3.44582C2.432 3.28582 2.352 3.06182 2.352 2.77382C2.352 2.48582 2.432 2.26182 2.592 2.10182C2.768 1.94182 3.008 1.86182 3.312 1.86182C3.6 1.86182 3.824 1.94182 3.984 2.10182C4.144 2.26182 4.224 2.48582 4.224 2.77382C4.224 3.06182 4.144 3.28582 3.984 3.44582C3.824 3.60582 3.6 3.68582 3.312 3.68582ZM11.1454 16.3578C10.4894 16.3578 9.95338 16.2138 9.53738 15.9258C9.12138 15.6218 8.91338 15.1258 8.91338 14.4378V8.72582C8.91338 8.29382 8.88138 7.99782 8.81738 7.83782C8.76938 7.66182 8.66538 7.54982 8.50538 7.50182C8.34538 7.43782 8.06538 7.40582 7.66538 7.40582C7.61738 7.40582 7.59338 7.35782 7.59338 7.26182C7.59338 7.16582 7.61738 7.11782 7.66538 7.11782C8.27338 7.11782 8.76138 6.94982 9.12938 6.61382C9.51338 6.27782 9.70538 5.85382 9.70538 5.34182C9.70538 5.29382 9.76938 5.26982 9.89738 5.26982C10.0094 5.26982 10.0654 5.29382 10.0654 5.34182V13.6218C10.0654 14.9498 10.7134 15.6138 12.0094 15.6138C12.7454 15.6138 13.3934 15.3978 13.9534 14.9658L14.0014 14.9418C14.0494 14.9418 14.0894 14.9818 14.1214 15.0618C14.1534 15.1258 14.1454 15.1738 14.0974 15.2058C13.5054 15.6218 12.9854 15.9178 12.5374 16.0938C12.0894 16.2698 11.6254 16.3578 11.1454 16.3578ZM13.3774 7.95782C12.8014 7.81382 12.2334 7.71782 11.6734 7.66982C11.1294 7.62182 10.4974 7.59782 9.77737 7.59782V7.09382C10.7534 7.09382 11.9774 7.01382 13.4494 6.85382C13.4974 6.85382 13.5374 6.90982 13.5694 7.02182C13.6014 7.11782 13.6174 7.24582 13.6174 7.40582C13.6174 7.53382 13.5934 7.66182 13.5454 7.78982C13.4974 7.91782 13.4414 7.97382 13.3774 7.95782ZM15.8702 1.45382C15.8702 1.30982 15.9982 1.16582 16.2542 1.02182C16.5262 0.877823 16.8062 0.781823 17.0942 0.733823C17.3822 0.685823 17.5182 0.701824 17.5022 0.781824L16.3022 7.28582C16.2862 7.31782 16.2382 7.34182 16.1582 7.35782C16.0942 7.37382 16.0622 7.35782 16.0622 7.30982L15.8702 1.45382ZM19.7884 8.34182C19.7884 8.93382 19.9724 9.39782 20.3404 9.73382C20.7084 10.0538 21.2684 10.3978 22.0204 10.7658C22.5644 11.0378 22.9964 11.2778 23.3164 11.4858C23.6364 11.6938 23.9084 11.9658 24.1324 12.3018C24.3564 12.6218 24.4684 13.0138 24.4684 13.4778C24.4684 14.2778 24.1644 14.9578 23.5564 15.5178C22.9644 16.0618 22.1484 16.3338 21.1084 16.3338C20.2604 16.3338 19.5084 16.0858 18.8524 15.5898C18.7564 15.5258 18.7084 15.4298 18.7084 15.3018L18.6604 13.5738C18.6604 13.5258 18.7004 13.5018 18.7804 13.5018C18.8764 13.4858 18.9324 13.5018 18.9484 13.5498C19.2524 14.3498 19.6364 14.9418 20.1004 15.3258C20.5804 15.6938 21.1484 15.8778 21.8044 15.8778C22.3484 15.8778 22.7644 15.7578 23.0524 15.5178C23.3404 15.2778 23.4844 14.9258 23.4844 14.4618C23.4844 13.9978 23.3804 13.6138 23.1724 13.3098C22.9804 12.9898 22.7324 12.7338 22.4284 12.5418C22.1404 12.3498 21.7404 12.1338 21.2284 11.8938C20.7004 11.6378 20.2764 11.4138 19.9564 11.2218C19.6524 11.0138 19.3884 10.7418 19.1644 10.4058C18.9564 10.0698 18.8524 9.65382 18.8524 9.15782C18.8524 8.30982 19.1724 7.65382 19.8124 7.18982C20.4524 6.72582 21.2044 6.49382 22.0684 6.49382C22.6604 6.49382 23.2284 6.61382 23.7724 6.85382C23.8684 6.90182 23.9244 6.94182 23.9404 6.97382C23.9724 7.00582 23.9884 7.05382 23.9884 7.11782C23.9884 7.42182 23.9804 7.66182 23.9644 7.83782L23.9404 8.77382C23.9404 8.80582 23.8924 8.82182 23.7964 8.82182C23.7004 8.82182 23.6524 8.80582 23.6524 8.77382C23.6524 8.26182 23.3884 7.83782 22.8604 7.50182C22.3324 7.14982 21.7724 6.97382 21.1804 6.97382C20.7484 6.97382 20.4044 7.09382 20.1484 7.33382C19.9084 7.55782 19.7884 7.89382 19.7884 8.34182ZM50.7158 3.06182C50.7158 2.58182 50.6598 2.22982 50.5478 2.00582C50.4518 1.76582 50.2517 1.59782 49.9478 1.50182C49.6597 1.40582 49.2038 1.35782 48.5798 1.35782C48.5318 1.35782 48.5078 1.30982 48.5078 1.21382C48.5078 1.11782 48.5318 1.06982 48.5798 1.06982L49.7078 1.09382C50.3798 1.12582 50.9318 1.14182 51.3638 1.14182C51.7638 1.14182 52.2998 1.12582 52.9718 1.09382L54.1238 1.06982C54.1718 1.06982 54.1958 1.11782 54.1958 1.21382C54.1958 1.30982 54.1718 1.35782 54.1238 1.35782C53.4998 1.35782 53.0358 1.40582 52.7318 1.50182C52.4438 1.58182 52.2438 1.73382 52.1318 1.95782C52.0198 2.18182 51.9638 2.53382 51.9638 3.01382V14.1258C51.9638 14.6058 52.0198 14.9658 52.1318 15.2058C52.2438 15.4298 52.4438 15.5818 52.7318 15.6618C53.0358 15.7418 53.4998 15.7818 54.1238 15.7818C54.1718 15.7818 54.1958 15.8298 54.1958 15.9258C54.1958 16.0218 54.1718 16.0698 54.1238 16.0698C53.6278 16.0698 53.2438 16.0618 52.9718 16.0458L51.3638 16.0218L49.7078 16.0458C49.4358 16.0618 49.0598 16.0698 48.5798 16.0698C48.5318 16.0698 48.5078 16.0218 48.5078 15.9258C48.5078 15.8298 48.5318 15.7818 48.5798 15.7818C49.2198 15.7818 49.6838 15.7418 49.9718 15.6618C50.2598 15.5818 50.4518 15.4298 50.5478 15.2058C50.6598 14.9818 50.7158 14.6218 50.7158 14.1258V3.06182ZM40.4438 8.02982H51.2438V8.48582H40.4438V8.02982ZM39.8678 3.01382C39.8678 2.53382 39.8118 2.18182 39.6998 1.95782C39.6038 1.73382 39.4038 1.58182 39.0998 1.50182C38.8118 1.40582 38.3558 1.35782 37.7318 1.35782C37.6998 1.35782 37.6838 1.30982 37.6838 1.21382C37.6838 1.11782 37.6998 1.06982 37.7318 1.06982L38.9078 1.09382C39.5798 1.12582 40.1078 1.14182 40.4918 1.14182C40.9238 1.14182 41.4758 1.12582 42.1478 1.09382L43.2758 1.06982C43.3078 1.06982 43.3238 1.11782 43.3238 1.21382C43.3238 1.30982 43.3078 1.35782 43.2758 1.35782C42.6518 1.35782 42.1878 1.40582 41.8838 1.50182C41.5958 1.59782 41.3958 1.76582 41.2838 2.00582C41.1878 2.22982 41.1398 2.58182 41.1398 3.06182V14.1258C41.1398 14.6218 41.1878 14.9818 41.2838 15.2058C41.3958 15.4298 41.5958 15.5818 41.8838 15.6618C42.1718 15.7418 42.6358 15.7818 43.2758 15.7818C43.3078 15.7818 43.3238 15.8298 43.3238 15.9258C43.3238 16.0218 43.3078 16.0698 43.2758 16.0698C42.7958 16.0698 42.4118 16.0618 42.1238 16.0458L40.4918 16.0218L38.9078 16.0458C38.6198 16.0618 38.2198 16.0698 37.7078 16.0698C37.6758 16.0698 37.6598 16.0218 37.6598 15.9258C37.6598 15.8298 37.6758 15.7818 37.7078 15.7818C38.3318 15.7818 38.7878 15.7418 39.0758 15.6618C39.3798 15.5818 39.5878 15.4298 39.6998 15.2058C39.8118 14.9658 39.8678 14.6058 39.8678 14.1258V3.01382ZM63.8153 16.3578C62.3273 16.3578 60.9993 16.0138 59.8313 15.3258C58.6793 14.6218 57.7833 13.6778 57.1433 12.4938C56.5193 11.2938 56.2073 9.98982 56.2073 8.58182C56.2073 6.93382 56.6233 5.52582 57.4553 4.35782C58.2873 3.17382 59.3513 2.28582 60.6473 1.69382C61.9593 1.10182 63.2953 0.805823 64.6553 0.805823C66.1753 0.805823 67.5113 1.16582 68.6633 1.88582C69.8153 2.58982 70.6953 3.52582 71.3033 4.69382C71.9273 5.86182 72.2393 7.10182 72.2393 8.41382C72.2393 9.86982 71.8553 11.2058 71.0873 12.4218C70.3193 13.6378 69.2873 14.5978 67.9913 15.3018C66.7113 16.0058 65.3193 16.3578 63.8153 16.3578ZM64.6793 15.8778C65.8153 15.8778 66.8393 15.6138 67.7513 15.0858C68.6633 14.5578 69.3833 13.7818 69.9113 12.7578C70.4393 11.7338 70.7033 10.5098 70.7033 9.08582C70.7033 7.58182 70.4073 6.24582 69.8153 5.07782C69.2393 3.89382 68.4153 2.97382 67.3433 2.31782C66.2873 1.66182 65.0553 1.33382 63.6473 1.33382C61.7913 1.33382 60.3433 1.90982 59.3033 3.06182C58.2633 4.21382 57.7433 5.78182 57.7433 7.76582C57.7433 9.25382 58.0313 10.6218 58.6073 11.8698C59.1993 13.1018 60.0233 14.0778 61.0793 14.7978C62.1353 15.5178 63.3353 15.8778 64.6793 15.8778ZM87.1343 3.58982C87.1343 2.82182 86.9663 2.26182 86.6302 1.90982C86.3103 1.54182 85.7983 1.35782 85.0943 1.35782C85.0463 1.35782 85.0223 1.30982 85.0223 1.21382C85.0223 1.11782 85.0463 1.06982 85.0943 1.06982L86.1023 1.09382C86.6463 1.12582 87.0863 1.14182 87.4223 1.14182C87.7103 1.14182 88.0943 1.12582 88.5743 1.09382L89.5583 1.06982C89.5903 1.06982 89.6063 1.11782 89.6063 1.21382C89.6063 1.30982 89.5903 1.35782 89.5583 1.35782C88.9023 1.35782 88.4223 1.54182 88.1183 1.90982C87.8143 2.26182 87.6623 2.82182 87.6623 3.58982V10.4538C87.6623 12.3258 87.1583 13.7818 86.1503 14.8218C85.1423 15.8618 83.7823 16.3818 82.0703 16.3818C80.8863 16.3818 79.8543 16.1498 78.9743 15.6858C78.0943 15.2058 77.4143 14.5338 76.9342 13.6698C76.4543 12.8058 76.2143 11.8058 76.2143 10.6698V3.01382C76.2143 2.53382 76.1583 2.18182 76.0463 1.95782C75.9503 1.73382 75.7503 1.58182 75.4463 1.50182C75.1583 1.40582 74.7023 1.35782 74.0783 1.35782C74.0463 1.35782 74.0303 1.30982 74.0303 1.21382C74.0303 1.11782 74.0463 1.06982 74.0783 1.06982L75.2303 1.09382C75.9023 1.12582 76.4383 1.14182 76.8383 1.14182C77.2703 1.14182 77.8223 1.12582 78.4943 1.09382L79.5983 1.06982C79.6463 1.06982 79.6703 1.11782 79.6703 1.21382C79.6703 1.30982 79.6463 1.35782 79.5983 1.35782C78.9743 1.35782 78.5183 1.40582 78.2303 1.50182C77.9423 1.59782 77.7423 1.76582 77.6303 2.00582C77.5343 2.22982 77.4863 2.58182 77.4863 3.06182V9.82982C77.4863 11.7018 77.9263 13.1498 78.8063 14.1738C79.6863 15.1818 80.9183 15.6858 82.5023 15.6858C83.9583 15.6858 85.0943 15.2298 85.9103 14.3178C86.7263 13.3898 87.1343 12.1098 87.1343 10.4778V3.58982ZM93.312 3.97382C93.312 4.61382 93.464 5.16582 93.768 5.62982C94.072 6.09382 94.44 6.48582 94.872 6.80582C95.32 7.10982 95.936 7.49382 96.72 7.95782C97.552 8.45382 98.192 8.86982 98.64 9.20582C99.104 9.52582 99.496 9.94182 99.816 10.4538C100.152 10.9658 100.32 11.5818 100.32 12.3018C100.32 13.0538 100.136 13.7418 99.768 14.3658C99.4 14.9738 98.848 15.4618 98.112 15.8298C97.392 16.1818 96.504 16.3578 95.448 16.3578C94.888 16.3578 94.352 16.2938 93.84 16.1658C93.344 16.0538 92.792 15.8458 92.184 15.5418C92.104 15.4938 92.048 15.4378 92.016 15.3738C92 15.3098 91.984 15.2138 91.968 15.0858L91.608 11.9658V11.9418C91.608 11.8778 91.648 11.8458 91.728 11.8458C91.808 11.8298 91.856 11.8538 91.872 11.9178C92.032 13.0218 92.456 13.9818 93.144 14.7978C93.832 15.6138 94.776 16.0218 95.976 16.0218C96.824 16.0218 97.536 15.7898 98.112 15.3258C98.704 14.8618 99 14.1338 99 13.1418C99 12.4218 98.84 11.8058 98.52 11.2938C98.2 10.7658 97.808 10.3338 97.344 9.99782C96.896 9.64582 96.28 9.23782 95.496 8.77382C94.728 8.32582 94.12 7.93382 93.672 7.59782C93.24 7.26182 92.864 6.84582 92.544 6.34982C92.24 5.83782 92.088 5.22982 92.088 4.52582C92.088 3.72582 92.288 3.04582 92.688 2.48582C93.104 1.92582 93.64 1.50982 94.296 1.23782C94.952 0.949823 95.656 0.805823 96.408 0.805823C97.288 0.805823 98.2 0.997823 99.144 1.38182C99.384 1.47782 99.504 1.61382 99.504 1.78982L99.72 4.33382C99.72 4.39782 99.672 4.42982 99.576 4.42982C99.496 4.42982 99.448 4.39782 99.432 4.33382C99.368 3.50182 99.056 2.75782 98.496 2.10182C97.936 1.44582 97.136 1.11782 96.096 1.11782C95.136 1.11782 94.432 1.39782 93.984 1.95782C93.536 2.51782 93.312 3.18982 93.312 3.97382ZM102.704 16.0698C102.672 16.0698 102.656 16.0218 102.656 15.9258C102.656 15.8298 102.672 15.7818 102.704 15.7818C103.328 15.7818 103.784 15.7418 104.072 15.6618C104.376 15.5818 104.576 15.4298 104.672 15.2058C104.784 14.9658 104.84 14.6058 104.84 14.1258V3.01382C104.84 2.53382 104.784 2.18182 104.672 1.95782C104.576 1.73382 104.376 1.58182 104.072 1.50182C103.784 1.40582 103.328 1.35782 102.704 1.35782C102.672 1.35782 102.656 1.30982 102.656 1.21382C102.656 1.11782 102.672 1.06982 102.704 1.06982H112.208C112.352 1.06982 112.424 1.14182 112.424 1.28582L112.472 4.18982C112.472 4.23782 112.424 4.26182 112.328 4.26182C112.248 4.26182 112.208 4.23782 112.208 4.18982C112.208 3.37382 111.992 2.72582 111.56 2.24582C111.128 1.76582 110.56 1.52582 109.856 1.52582H108.2C107.592 1.52582 107.144 1.56582 106.856 1.64582C106.568 1.72582 106.368 1.87782 106.256 2.10182C106.16 2.32582 106.112 2.67782 106.112 3.15782V14.0298C106.112 14.4938 106.16 14.8378 106.256 15.0618C106.368 15.2698 106.56 15.4138 106.832 15.4938C107.12 15.5738 107.576 15.6138 108.2 15.6138H110.408C111.048 15.6138 111.592 15.3338 112.04 14.7738C112.504 14.2138 112.8 13.4778 112.928 12.5658C112.928 12.5178 112.976 12.5018 113.072 12.5178C113.168 12.5178 113.216 12.5418 113.216 12.5898C113.072 13.5978 113 14.6378 113 15.7098C113 15.8378 112.968 15.9338 112.904 15.9978C112.856 16.0458 112.76 16.0698 112.616 16.0698H102.704ZM111.272 10.4298C111.272 9.70982 111.12 9.20582 110.816 8.91782C110.512 8.62982 109.976 8.48582 109.208 8.48582H105.512V8.02982H109.28C110.016 8.02982 110.528 7.90982 110.816 7.66982C111.104 7.41382 111.248 6.98182 111.248 6.37382C111.248 6.34182 111.296 6.32582 111.392 6.32582C111.488 6.32582 111.536 6.34182 111.536 6.37382L111.512 8.26982C111.512 8.73382 111.52 9.07782 111.536 9.30182L111.56 10.4298C111.56 10.4618 111.512 10.4778 111.416 10.4778C111.32 10.4778 111.272 10.4618 111.272 10.4298Z" fill="white"/>
</g>
</svg>
