<svg width="18" height="8" viewBox="0 0 18 8" fill="none" xmlns="http://www.w3.org/2000/svg">
<path d="M12.348 7.67213C12.264 7.67213 12.222 7.60012 12.222 7.45612C12.222 7.40812 12.234 7.36013 12.258 7.31213C12.282 7.26413 12.306 7.21613 12.33 7.16813C12.654 6.67613 12.918 6.28613 13.122 5.99813C13.326 5.69813 13.506 5.44613 13.662 5.24213C13.818 5.03813 13.968 4.84613 14.112 4.66612H0.774018C0.690018 4.66612 0.618018 4.63613 0.558018 4.57613C0.498018 4.51613 0.468018 4.46212 0.468018 4.41412C0.468018 4.34212 0.486018 4.24013 0.522018 4.10813C0.558018 3.96413 0.612018 3.83812 0.684018 3.73012C0.768018 3.62212 0.870018 3.56813 0.990018 3.56813H14.238C14.034 3.36413 13.842 3.16013 13.662 2.95612C13.494 2.74012 13.308 2.47013 13.104 2.14613C12.9 1.81013 12.642 1.37213 12.33 0.832125C12.258 0.688125 12.222 0.568125 12.222 0.472125C12.222 0.376125 12.264 0.328125 12.348 0.328125C12.48 0.328125 12.606 0.382125 12.726 0.490125C12.858 0.586125 12.948 0.658125 12.996 0.706125C13.368 1.04212 13.692 1.33012 13.968 1.57013C14.244 1.79813 14.514 2.01412 14.778 2.21812C15.054 2.41012 15.372 2.62013 15.732 2.84813C16.104 3.07613 16.566 3.35813 17.118 3.69413C17.394 3.81413 17.532 3.95213 17.532 4.10813C17.532 4.20412 17.502 4.28212 17.442 4.34213C17.394 4.39013 17.31 4.45013 17.19 4.52213C16.674 4.77413 16.23 4.99613 15.858 5.18813C15.498 5.38013 15.168 5.57812 14.868 5.78212C14.58 5.97412 14.286 6.19013 13.986 6.43013C13.698 6.65813 13.368 6.94613 12.996 7.29413C12.948 7.34212 12.858 7.42013 12.726 7.52813C12.606 7.62413 12.48 7.67213 12.348 7.67213Z" fill="white"/>
</svg>
